<svg version="1.2" xmlns="http://www.w3.org/2000/svg" viewBox="0 0 327 410" width="327" height="410"><style>.a{fill:#ff0018}</style><path class="a" d="m0.1 0c0.2 0 68 13 150.5 28.8 82.6 15.8 150.4 28.9 150.8 29.2 0.3 0.3-3.1 19.2-7.4 42-4.4 22.8-8 41.8-8 42.2 0 0.5-0.3 0.8-0.8 0.8-0.4 0-2.5-3.2-4.7-7-2.2-3.9-4.5-7-5-7-0.6 0-6.2 3-12.5 6.6-6.3 3.6-13.6 7.6-21 11.4l-58.8-35.2c-32.3-19.3-61.6-37-65.2-39.3-3.6-2.3-22.7-13.7-42.5-25.5-19.8-11.7-44.8-26.6-55.5-33.1-10.7-6.4-19.7-12.2-19.9-12.8-0.2-0.6-0.2-1.1 0-1.1zm48.3 33.2c1.1 0.8 15.5 9.5 61.8 37.1l-0.1 4.6c-0.1 2.5-2.1 37.4-4.5 77.6-2.4 40.1-4.2 73.3-4 73.7 0.2 0.5 0 7.9-0.6 16.5-0.5 8.7-1.2 19.8-1.5 24.8-0.2 4.9-2 36.7-4 70.5-1.9 33.8-3.7 63.9-4.5 72h-68l0.5-8.3c0.3-4.5 2.1-34.5 4-66.7 1.9-32.2 4.1-70 5-84 0.8-14 4-68.5 7-121 3.1-52.5 5.9-96.1 6.2-96.9 0.5-1.1 0.9-1.1 2.7 0.1zm227.4 100.1c0.7 0.7 4.7 7 8.7 14.2 4.1 7.1 15.5 27.8 25.4 46 15 27.6 17.7 33.1 16.3 33.6-0.9 0.3-51.5 8.9-112.4 19-60.8 10.1-110.9 18.2-111.1 17.9-0.3-0.3-0.1-8.8 0.5-19 0.9-18 1-18.6 3.4-20.5 1.4-1.1 31.4-17.8 66.7-37 35.3-19.3 67.3-36.8 71.2-38.9 3.8-2.2 9.5-5.4 12.5-7.1 3-1.8 8.2-4.6 11.4-6.3 4.8-2.5 6.2-2.9 7.4-1.9zm-248.1 133.7q1.3 0 1.3 5c0 2.7-0.3 5-0.8 5-0.4 0-5.7 0.9-11.7 1.9-6.1 1-11.2 1.7-11.5 1.5-0.3-0.2 0.1-1 0.8-1.7 0.8-0.6 5.7-3.5 11-6.4 5.3-2.9 10.3-5.3 10.9-5.3z"/></svg>