<svg version="1.2" xmlns="http://www.w3.org/2000/svg" viewBox="0 0 1679 410" width="1679" height="410"><style>.a{fill:#ff0018}.b{fill:#fff}</style><path class="a" d="m0.1 0c0.2 0 68 13 150.5 28.8 82.6 15.8 150.4 28.9 150.8 29.2 0.3 0.3-3.1 19.2-7.4 42-4.4 22.8-8 41.8-8 42.2 0 0.5-0.3 0.8-0.8 0.8-0.4 0-2.5-3.2-4.7-7-2.2-3.9-4.5-7-5-7-0.6 0-6.2 3-12.5 6.6-6.3 3.6-13.6 7.6-21 11.4l-58.8-35.2c-32.3-19.3-61.6-37-65.2-39.3-3.6-2.3-22.7-13.7-42.5-25.5-19.8-11.7-44.8-26.6-55.5-33.1-10.7-6.4-19.7-12.2-19.9-12.8-0.2-0.6-0.2-1.1 0-1.1zm48.3 33.2c1.1 0.8 15.5 9.5 61.8 37.1l-0.1 4.6c-0.1 2.5-2.1 37.4-4.5 77.6-2.4 40.1-4.2 73.3-4 73.7 0.2 0.5 0 7.9-0.6 16.5-0.5 8.7-1.2 19.8-1.5 24.8-0.2 4.9-2 36.7-4 70.5-1.9 33.8-3.7 63.9-4.5 72h-68l0.5-8.3c0.3-4.5 2.1-34.5 4-66.7 1.9-32.2 4.1-70 5-84 0.8-14 4-68.5 7-121 3.1-52.5 5.9-96.1 6.2-96.9 0.5-1.1 0.9-1.1 2.7 0.1z"/><path class="b" d="m1646 169.1c7.9 0 16.2 0.5 20 1.3 3.6 0.7 8 2.1 13 4.6v16.2c0 9-0.2 16.6-0.5 17-0.3 0.5-2.6-0.5-5.3-2.2-2.6-1.6-7.4-3.7-10.7-4.6-4.1-1.1-8.6-1.5-14.5-1.2-6.3 0.3-9.9 1.1-14 2.9-3 1.4-7.2 4.2-9.3 6.2-2 2-4.8 5.9-6.2 8.7-1.4 2.7-2.9 8-3.5 11.7-0.6 4.2-0.6 9.3 0 13.3 0.5 3.6 1.8 8.5 2.9 11 1.1 2.5 3.7 6.3 5.8 8.4 2.1 2.2 6.3 5.1 9.3 6.5 4.2 1.9 7.6 2.7 14 3 6 0.2 10.2-0.2 14.5-1.4 3.3-0.9 8.1-2.8 10.7-4.1 2.7-1.3 5.2-2.4 5.8-2.4 0.6 0 1 5.9 1.1 31.5l-4.8 2.2c-2.6 1.2-8.2 2.9-12.3 3.8-4.8 1-12.3 1.6-21 1.6-10.6 0.1-15.2-0.4-21.5-2.1-4.4-1.1-10.7-3.5-14-5.3-3.6-1.9-9.2-6.3-14-11.2-5.5-5.5-9-10-11.1-14.5-1.8-3.6-4-9.4-4.9-13-1.3-4.6-1.8-10.1-1.7-19 0-9.5 0.5-14.4 2.2-20.5 1.1-4.4 3.8-11.2 5.8-15 2.3-4.4 6.3-9.6 10.7-14 4.9-4.9 9.4-8.3 15-11.1 4.4-2.3 10.9-4.9 14.5-5.7 3.6-0.9 7.4-1.8 8.5-2.1 1.1-0.2 8.1-0.4 15.5-0.5z"/><path class="a" d="m275.8 133.3c0.7 0.7 4.7 7 8.7 14.2 4.1 7.1 15.5 27.8 25.4 46 15 27.6 17.7 33.1 16.3 33.6-0.9 0.3-51.5 8.9-112.4 19-60.8 10.1-110.9 18.2-111.1 17.9-0.3-0.3-0.1-8.8 0.5-19 0.9-18 1-18.6 3.4-20.5 1.4-1.1 31.4-17.8 66.7-37 35.3-19.3 67.3-36.8 71.2-38.9 3.8-2.2 9.5-5.4 12.5-7.1 3-1.8 8.2-4.6 11.4-6.3 4.8-2.5 6.2-2.9 7.4-1.9zm-248.1 133.7q1.3 0 1.3 5c0 2.7-0.3 5-0.8 5-0.4 0-5.7 0.9-11.7 1.9-6.1 1-11.2 1.7-11.5 1.5-0.3-0.2 0.1-1 0.8-1.7 0.8-0.6 5.7-3.5 11-6.4 5.3-2.9 10.3-5.3 10.9-5.3z"/><path fill-rule="evenodd" class="b" d="m772 110h40l-0.5 190.5-39.5 0.5zm756.5 1.1c2.7-0.1 6.7 0.5 8.9 1.2 2.1 0.6 5.4 2.5 7.4 4.2 2 1.6 4.4 4.8 5.4 7 0.9 2.2 1.8 5.8 1.8 8 0 2.2-0.9 5.8-1.9 8-1 2.2-3.1 5.2-4.7 6.7-1.6 1.5-4.6 3.4-6.7 4.2-2 0.9-6.5 1.6-10 1.6-4.8 0-7.4-0.6-11.7-2.7-3.9-2-6.2-4.1-8.2-7.3-2.3-3.6-2.8-5.7-2.8-10.3 0-3.7 0.7-7.1 2-9.7 1.1-2.2 3.5-5 5.2-6.2 1.8-1.2 4.9-2.8 6.8-3.5 1.9-0.7 5.7-1.2 8.5-1.2zm-1066.5 9.4l38.2 0.2c21.1 0.2 41.4 0.8 45.3 1.3 3.8 0.6 10.1 2.2 14 3.6 3.8 1.3 9.2 3.9 11.9 5.7 2.7 1.7 6.7 5 8.9 7.2 2.2 2.2 5.5 7.1 7.4 11 1.9 3.9 4 10.7 4.9 15.5 1 5.6 1.4 11.3 1 16.5-0.3 4.4-1.3 10.5-2.2 13.5-0.9 3-3 8.2-4.7 11.5-1.8 3.3-6.1 8.9-9.7 12.5-4 4-9.2 7.9-13.5 10.2-3.9 2-9.9 4.6-13.5 5.7-3.6 1.1-10.3 2.5-15 3.1-4.7 0.5-13.8 1-32 1v61h-41zm41 86.5c24.3-0.6 29.5-1.1 32-2.2 1.9-0.9 5-2.9 6.9-4.4 1.9-1.6 4.5-5.2 5.8-7.9 1.8-3.9 2.3-6.7 2.2-12.5 0-4.1-0.5-9.1-1.2-11-0.7-2-2.4-5.1-3.8-7-1.4-1.9-4.7-4.5-7.2-5.8-2.6-1.2-8.4-2.6-12.9-3.2-4.6-0.6-11.3-1-15-1h-6.8zm177.5-37.6c9.9 0.2 17 0.9 21 2 3.3 1 8.7 3 12 4.7 3.3 1.6 8.1 4.6 10.6 6.7 2.5 2 6.4 5.9 8.6 8.7 2.3 2.7 5.5 7.7 7.1 11 1.7 3.3 3.8 8.9 4.8 12.5 1.4 4.9 1.8 9.9 1.8 20-0.1 10.7-0.6 15.2-2.3 21.5-1.2 4.4-3.6 10.7-5.3 14-1.9 3.6-6.4 9.2-11.3 14-5.4 5.5-10.1 9-14.5 11.2-3.6 1.8-10.1 4.2-14.5 5.3-6.1 1.6-11.1 2.1-21 2.2-10.1 0-15-0.4-22-2.1-4.9-1.2-11.9-3.8-15.5-5.6-3.6-1.9-9-5.6-12-8.3-3-2.7-7.4-7.8-9.7-11.5-2.4-3.7-5.5-10.2-7-14.5-2.6-7.2-2.8-8.7-2.8-24.7 0-16.1 0.2-17.4 2.9-25 1.5-4.4 4-10 5.4-12.5 1.5-2.4 4.7-6.6 7.2-9.4 2.5-2.7 7.2-6.7 10.5-8.9 3.3-2.3 8.5-5.1 11.5-6.3 3-1.2 8.7-2.9 12.5-3.8 5.2-1.1 10.9-1.5 22-1.2zm-23.8 39.7c-2.1 2.4-4.5 6.6-5.5 9.4-1.3 3.7-1.7 8.3-1.7 18 0 9.8 0.4 14.2 1.7 18 1 2.7 3.2 6.8 5 8.9 1.8 2.1 5.1 4.8 7.3 5.9 2.6 1.3 6.7 2.2 11.5 2.5 4.1 0.2 9.4-0.1 11.8-0.7 2.3-0.6 6.1-2.8 8.5-5 2.3-2.1 5.2-6 6.4-8.7 1.2-2.7 2.7-9 3.3-13.9 0.8-6.6 0.8-11.1 0-17-0.7-4.4-2.3-10.4-3.6-13.3-1.3-2.8-3.9-6.3-5.6-7.6-1.8-1.4-5.3-3.2-7.8-4.1-2.5-0.8-7.4-1.5-11-1.5-4.6 0-7.9 0.7-11.5 2.3-2.8 1.3-6.7 4.3-8.8 6.8zm408.3-39.8c9.8 0.2 12.3 0.6 17 2.8 3 1.4 7.7 4.5 10.3 6.9 2.9 2.7 6 6.9 7.7 10.5 1.6 3.3 3.6 9.5 4.4 13.7 1.3 6.4 1.6 15.7 1.6 96.8h-40l-0.3-41.3c-0.2-36.7-0.4-41.7-2-45.7-1-2.5-3-5.8-4.5-7.4-1.5-1.6-4.2-3.5-5.9-4.2-1.8-0.8-5.5-1.4-8.3-1.4-2.7 0-6.1 0.4-7.5 1-1.4 0.5-4.4 2.7-6.6 4.7-2.3 2.1-5.1 5.8-6.3 8.3-2 4.3-2.1 6.2-2.6 86h-40v-128h40l0.5 19 4.3-5.5c2.3-3 6.6-7.1 9.5-9 2.8-1.9 7.9-4.4 11.2-5.5 4.9-1.6 8.2-1.9 17.5-1.7zm123.5-0.2c9.1-0.1 14 0.4 20 1.9 4.4 1.1 10.4 3.5 13.4 5.3 2.9 1.7 7.1 5.2 9.4 7.7 2.2 2.5 5.2 7.2 6.7 10.5 1.5 3.3 3.3 8.2 4 11 0.9 3.5 1.4 18.1 2 94.5h-39v-16l-5.7 6.1c-3.7 3.9-8 7.1-11.8 9-3.8 1.8-8.8 3.2-13.5 3.8-4.5 0.5-10.2 0.5-14.2 0-3.8-0.5-9.2-2-12-3.3-2.9-1.4-7.2-4.3-9.5-6.5-2.4-2.3-5.7-6.9-7.3-10.4-2.2-4.4-3.2-8.3-3.7-13.7-0.4-4.6-0.1-10 0.7-14 0.6-3.6 2.3-8.6 3.6-11.3 1.3-2.6 4.3-6.6 6.7-8.8 2.3-2.3 6.9-5.5 10.2-7.1 3.3-1.7 9.4-3.9 13.5-4.9 4.1-1 15.4-2.8 25-4 9.6-1.2 17.8-2.4 18.2-2.8 0.4-0.3 0.2-2.9-0.5-5.7-0.6-2.8-2.1-6.1-3.2-7.4-1.1-1.2-3.8-3.1-6-4.3-3.3-1.7-5.7-2-13.5-2-6.3 0.1-12.2 0.8-17.5 2.2-4.4 1.2-11.7 4.2-24.5 11.1l-0.1-30.5 4.8-2.2c2.6-1.2 7.7-2.9 11.3-3.8 3.6-1 9.7-2.3 13.5-3 3.9-0.7 12.4-1.4 19-1.4zm-10.5 74.9c-1.9 0.5-5 1.9-6.7 3-1.8 1.1-4.1 3.2-5 4.7-1.1 1.7-1.8 4.7-1.8 7.9 0 3.8 0.6 6 2.1 8.1 1.2 1.5 3.6 3.7 5.5 4.8 2.5 1.4 5.1 2 9.4 1.9 3.3-0.1 7.6-0.8 9.5-1.7 1.9-0.9 5-3.1 6.9-4.9 1.9-1.8 4.2-5.1 5.2-7.3 1.1-2.3 2.1-7.4 2.4-12.3 0.4-7.4 0.3-8.2-1.3-8.1-0.9 0.1-6.4 0.8-12.2 1.6-5.8 0.7-12.1 1.8-14 2.3zm180-74.6c8.3 0.2 11.6 0.7 15.5 2.5 2.8 1.2 6.8 3.7 9 5.5 2.2 1.9 5.4 5.7 7 8.5 1.7 2.8 3.2 5.1 3.5 5.1 0.3 0 1.9-1.8 3.5-4 1.7-2.2 5.7-6.1 9-8.6 3.3-2.5 8.5-5.5 11.5-6.6 3.8-1.4 8.8-2.2 16-2.5 7.8-0.4 12.1-0.1 16.5 1.1 3.3 0.9 8.1 3.1 10.6 4.9 2.6 1.7 5.8 4.5 7.1 6.2 1.4 1.6 3.4 4.8 4.6 7 1.1 2.2 2.8 6.7 3.8 10 1.5 5.3 1.8 11.6 2.4 101.5h-40v-37.3c0-20.4-0.5-40-1-43.5-0.6-3.4-1.9-8-3-10.2-1.1-2.2-3.5-5-5.2-6.2-2-1.3-5.5-2.3-8.8-2.6-4.4-0.4-6.4-0.1-10.4 1.9-3.2 1.6-5.9 3.9-7.8 6.6-1.5 2.4-3.5 6.9-4.3 10-1.2 4.7-1.5 13.1-1.5 81.3h-40l-0.3-42.3c-0.2-39.7-0.3-42.5-2.2-46.6-1.1-2.4-3.5-5.7-5.2-7.3-1.8-1.5-5-3.1-7-3.4-2.1-0.4-5.8-0.4-8.3-0.1-2.6 0.3-6.1 1.8-8.4 3.4-2.1 1.5-4.9 4.8-6.2 7.3-1.3 2.5-2.8 7.6-3.4 11.5-0.5 3.8-1 22.9-1 77.5h-40v-128h40l0.1 18.5 7.2-7.1c4.5-4.4 9.3-8.1 13-9.7 3.1-1.5 7.4-3.1 9.5-3.7 2-0.5 8.4-0.8 14.2-0.6zm-530.9 2.6h44.4l12.8 41.2c7 22.7 13.1 43.3 13.6 45.8 0.4 2.5 1 3.8 1.3 3 0.3-0.8 6.5-21.1 13.8-45 7.3-23.9 13.5-43.8 13.9-44.2 0.3-0.5 9.4-0.7 39.8-0.3l-26.8 71.5c-14.8 39.3-28.7 75.1-30.9 79.5-2.2 4.4-6.4 11.1-9.2 15-2.9 3.8-8 9-11.3 11.5-3.3 2.6-8.7 5.6-12 6.9-3.3 1.2-8.9 2.6-12.5 3-3.6 0.4-10.7 0.4-15.7-0.1-5.1-0.4-10.4-1.3-14.3-2.8v-15.3c0-8.3 0.3-15.5 0.7-15.9 0.5-0.4 2.2 0 3.8 0.9 1.8 1 6.3 1.8 11 2.1 6.7 0.4 8.7 0.1 12-1.6 2.2-1.1 5-3.1 6.2-4.4 1.2-1.2 4.3-6.9 11.3-22.8l-25.1-61.8c-13.8-33.9-25.5-62.7-26-64zm681 0h41v128h-41z"/></svg>